<?xml version="1.0" encoding="UTF-8"?>
<svg id="Layer_1" data-name="Layer 1" xmlns="http://www.w3.org/2000/svg" viewBox="0 0 735.78 226.3">
  <defs>
    <style>
      .cls-1 {
        fill: #f9f9f9;
      }
    </style>
  </defs>
  <g>
    <path d="m283.35,47.43h-24.74l.29-14.05h63.64l-.29,14.05h-32.38l8.18,14.95-1.16,49.7h-15.07l1.53-64.65Z"/>
    <path d="m332.89,33.37h14.5l-1.82,78.7h-14.5l1.82-78.7Z"/>
    <path d="m395.86,112.86c-7.35,0-14.03-1.8-20.04-5.4-6.01-3.6-10.74-8.47-14.2-14.62-3.45-6.15-5.09-12.85-4.91-20.13.18-7.27,2.12-13.98,5.83-20.13,3.71-6.15,8.68-11.04,14.92-14.67,6.24-3.63,12.99-5.45,20.26-5.45,7.94,0,15.05,2.19,21.31,6.58,6.26,4.38,10.91,10.18,13.94,17.37l-14.47,4.16c-1.98-4.12-4.77-7.42-8.38-9.89-3.61-2.47-7.86-3.75-12.74-3.82-4.72,0-9.01,1.14-12.85,3.43-3.84,2.29-6.91,5.42-9.19,9.39-2.28,3.97-3.47,8.32-3.56,13.04s.89,9.05,2.95,12.99c2.06,3.94,4.95,7.05,8.68,9.33,3.73,2.29,7.99,3.43,12.79,3.43s9.04-1.16,12.73-3.49c3.69-2.32,6.6-5.58,8.73-9.78l14.5,3.93c-3.34,7.2-8.24,12.95-14.7,17.26-6.46,4.31-13.66,6.46-21.6,6.46Z"/>
    <path d="m510.4,112.08h-18.78l-23.66-31.14-10.68,11.8-.51,19.34h-15.18l1.82-78.7h15.18l-.84,39.13,34.9-39.13h18.66l-33.25,36.32,32.33,42.39Z"/>
    <path d="m519.64,33.37h15.18l-1.53,64.65h37.44l-.29,14.05h-52.62l1.82-78.7Z"/>
    <path d="m582.04,33.37h56.55l-.29,14.05h-41.49l-.44,18.44h36.99l-.35,13.72h-36.88l-.44,18.44h41.38l-.29,14.05h-56.55l1.82-78.7Z"/>
    <path d="m312.7,204.4c-7.35,0-14.03-1.8-20.04-5.4-6.01-3.6-10.74-8.47-14.2-14.62-3.45-6.15-5.09-12.85-4.91-20.13.18-7.27,2.12-13.98,5.83-20.13,3.71-6.14,8.68-11.04,14.92-14.67,6.24-3.64,12.99-5.45,20.26-5.45,7.94,0,15.05,2.19,21.31,6.58,6.26,4.38,10.91,10.17,13.94,17.37l-14.47,4.16c-1.98-4.12-4.77-7.42-8.38-9.89-3.61-2.47-7.86-3.75-12.74-3.82-4.72,0-9.01,1.14-12.85,3.43-3.84,2.29-6.91,5.42-9.19,9.39-2.28,3.97-3.47,8.32-3.56,13.04-.09,4.72.89,9.05,2.95,12.99,2.06,3.94,4.95,7.05,8.68,9.33,3.73,2.29,7.99,3.43,12.79,3.43s9.04-1.16,12.73-3.49c3.69-2.32,6.6-5.58,8.73-9.78l14.5,3.93c-3.34,7.2-8.24,12.95-14.7,17.26-6.46,4.31-13.66,6.46-21.6,6.46Z"/>
    <path d="m360.25,124.91h15.18l-.85,32.49h37.66l.73-32.49h15.07l-1.82,78.7h-15.07l.83-32.61h-37.67l-.71,32.61h-15.18l1.82-78.7Z"/>
    <path d="m464.93,124.91h22.82l25.28,78.7h-15.63l-5.17-16.41h-35.08l-6.07,16.41h-15.63l29.48-78.7Zm23.16,48.57l-12.01-38-14.07,38h26.08Z"/>
    <path d="m523.39,124.91h34.52c5.02,0,9.56,1.22,13.61,3.65,4.05,2.44,7.23,5.7,9.54,9.78,2.31,4.09,3.42,8.49,3.33,13.21,0,3.52-.74,6.84-2.23,9.95-1.49,3.11-3.5,5.85-6.02,8.21-2.52,2.36-5.41,4.1-8.66,5.23l16.83,28.67h-16.19l-15.71-26.76h-15.07l-.59,26.76h-15.18l1.82-78.7Zm33.29,38.79c3.6,0,6.67-1.2,9.22-3.6,2.55-2.4,3.85-5.4,3.91-8.99.06-3.6-1.05-6.59-3.34-8.99-2.28-2.4-5.26-3.6-8.94-3.6h-19.34l-.52,25.18h19Z"/>
    <path d="m629.89,204.51c-7.27,0-13.93-1.8-19.98-5.4-6.05-3.6-10.8-8.47-14.25-14.62-3.45-6.15-5.09-12.85-4.91-20.13.18-7.27,2.14-13.98,5.89-20.13,3.74-6.15,8.72-11.04,14.92-14.67,6.2-3.63,12.93-5.45,20.2-5.45,8.02,0,15.15,2.14,21.39,6.41,6.24,4.27,10.88,10.01,13.91,17.2l-14.6,4.05c-1.92-4.2-4.73-7.46-8.42-9.78-3.7-2.32-7.87-3.49-12.51-3.49s-9.02,1.14-12.9,3.43c-3.88,2.29-6.96,5.42-9.24,9.39-2.28,3.97-3.43,8.32-3.45,13.04-.09,4.72.88,9.05,2.9,12.99,2.02,3.94,4.92,7.05,8.68,9.33,3.76,2.29,8.01,3.43,12.73,3.43,3.6,0,6.97-.67,10.11-2.02,3.14-1.35,5.89-3.33,8.26-5.96,2.36-2.62,4.13-5.77,5.3-9.44l-22.92.11.05-12.82h37.78l-.05,5.62c-.15,7.42-1.95,14.09-5.4,20.01-3.45,5.92-8.11,10.55-13.98,13.89-5.88,3.34-12.37,5-19.49,5Z"/>
    <path d="m679.23,124.91h56.55l-.29,14.05h-41.49l-.44,18.44h36.99l-.35,13.72h-36.88l-.44,18.44h41.38l-.29,14.05h-56.55l1.82-78.7Z"/>
  </g>
  <path d="m226.3,113.16c-.49,35.58-4.42,71.17-23.68,89.47-18.3,19.26-53.88,23.19-89.47,23.68-35.58-.49-71.17-4.42-89.48-23.68C4.42,184.33.49,148.74,0,113.16.49,77.57,4.42,41.99,23.68,23.68,41.99,4.42,77.57.49,113.16,0c35.58.49,71.17,4.42,89.47,23.68,19.26,18.31,23.19,53.89,23.68,89.48Z"/>
  <g>
    <polygon class="cls-1" points="118.91 49.77 118.91 63.85 95.87 70.9 95.87 49.77 118.91 49.77"/>
    <polygon class="cls-1" points="118.91 86.9 118.91 176.53 95.87 176.53 95.87 100.32 118.91 86.9"/>
    <polygon class="cls-1" points="165.01 49.77 165.01 72.82 84.34 97.47 84.34 120.51 95.87 116.99 95.87 140.04 61.29 150.61 61.29 81.46 165.01 49.77"/>
    <polygon class="cls-1" points="165.01 95.87 165.01 118.91 118.91 133 118.91 109.95 165.01 95.87"/>
  </g>
</svg>