<?xml version="1.0" standalone="no"?>
<!DOCTYPE svg PUBLIC "-//W3C//DTD SVG 20010904//EN"
 "http://www.w3.org/TR/2001/REC-SVG-20010904/DTD/svg10.dtd">
<svg version="1.0" xmlns="http://www.w3.org/2000/svg"
 width="300.000000pt" height="300.000000pt" viewBox="0 0 300.000000 300.000000"
 preserveAspectRatio="xMidYMid meet">
<metadata>
Created by potrace 1.10, written by Peter Selinger 2001-2011
</metadata>
<g transform="translate(0.000000,300.000000) scale(0.100000,-0.100000)"
fill="#000000" stroke="none">
<path d="M1180 2642 c0 -5 9 -35 20 -67 11 -32 20 -62 20 -66 0 -13 -114 42
-133 65 -17 21 -17 21 -32 2 -13 -17 -15 -17 -15 -4 0 9 -4 19 -9 22 -16 10
-41 -5 -41 -24 0 -10 -9 -20 -20 -23 -22 -6 -27 -45 -10 -78 9 -15 22 -19 63
-19 57 0 114 -29 170 -85 34 -35 34 -47 -3 -68 -84 -50 -136 -119 -190 -254
-25 -65 -39 -86 -64 -101 -38 -23 -95 -90 -126 -149 -36 -70 -48 -187 -40
-400 1 -24 6 -45 11 -48 5 -4 9 -17 9 -31 0 -14 11 -47 25 -74 14 -27 25 -65
25 -83 0 -54 27 -116 73 -171 24 -28 77 -100 117 -161 56 -84 110 -146 224
-258 82 -82 161 -154 175 -162 51 -26 164 -55 214 -55 51 0 52 1 119 73 71 76
96 118 148 257 18 47 63 143 102 213 87 161 97 207 74 320 -16 78 -16 84 0
122 17 39 23 103 27 302 1 51 7 97 13 103 15 15 39 3 53 -26 9 -20 17 -24 44
-22 18 1 38 -1 44 -5 13 -8 43 18 43 38 0 7 -16 36 -35 64 l-35 51 28 0 c15 0
37 6 47 14 16 12 17 17 6 45 -8 17 -20 31 -28 31 -8 0 -13 6 -10 13 6 18 -13
49 -27 44 -10 -4 -10 10 -3 61 7 58 6 68 -10 79 -11 9 -29 11 -48 7 l-30 -6
21 23 c50 55 -11 67 -67 13 -26 -25 -58 -42 -112 -59 l-76 -23 -6 28 c-10 44
-79 116 -140 145 -45 21 -55 30 -55 50 0 31 52 91 101 116 48 24 66 24 79 -1
13 -24 40 -27 40 -4 0 10 6 14 15 10 19 -7 48 35 43 66 -2 17 -14 27 -45 38
-36 12 -43 19 -43 41 0 15 -7 29 -16 33 -21 8 -34 -1 -34 -25 0 -10 -4 -19
-10 -19 -5 0 -10 7 -10 15 0 24 -38 18 -46 -7 -3 -13 -37 -51 -73 -85 -42 -38
-80 -85 -102 -125 l-34 -63 -3 36 c-2 20 9 93 23 163 14 70 23 132 20 137 -4
5 -28 9 -55 9 -48 0 -49 -1 -59 -35 -5 -20 -19 -93 -31 -163 -33 -203 -34
-207 -48 -207 -9 0 -31 50 -57 130 -24 72 -57 164 -72 205 l-29 75 -52 3 c-29
2 -52 -1 -52 -6z m100 -14 c0 -7 12 -43 26 -81 21 -55 24 -70 14 -83 -11 -12
-10 -13 2 -9 21 8 65 -114 45 -127 -8 -5 -7 -8 6 -8 9 0 17 -4 17 -9 0 -5 3
-17 6 -25 5 -12 2 -15 -12 -11 -13 4 -13 2 3 -6 44 -23 26 -74 -27 -74 -8 0
-15 -5 -15 -10 0 -6 -11 -22 -24 -35 l-24 -25 7 30 c4 17 16 61 27 98 30 96
11 126 -58 93 -33 -16 -36 -16 -49 1 -16 22 -17 30 -4 38 6 3 10 1 10 -5 0 -6
5 -8 11 -4 8 4 7 9 -2 15 -8 4 -18 4 -23 -1 -12 -12 -49 7 -41 21 4 5 3 9 -2
8 -23 -4 -35 2 -29 17 3 9 2 12 -4 9 -6 -4 -31 1 -55 11 -27 10 -57 14 -75 11
-23 -5 -32 -2 -40 13 -15 29 -12 48 10 55 11 3 20 15 20 26 0 23 18 25 26 4 7
-18 31 -20 37 -2 3 9 8 8 18 -4 18 -21 137 -74 146 -65 4 4 1 28 -6 54 -27 96
-28 92 18 92 26 0 41 -5 41 -12z m342 -3 c2 -3 -6 -53 -18 -112 -13 -60 -24
-123 -24 -140 0 -27 -4 -33 -22 -34 -16 -1 -18 -3 -6 -6 9 -2 18 -16 20 -30 5
-46 23 -35 63 37 26 48 63 94 112 139 40 38 73 76 73 85 0 23 17 20 23 -5 7
-26 31 -20 35 9 5 34 32 27 32 -8 0 -26 5 -31 40 -40 37 -10 40 -13 40 -47 0
-32 -2 -35 -25 -31 -17 4 -25 1 -25 -8 0 -19 -17 -17 -24 2 -10 25 -81 12
-125 -24 -46 -37 -83 -91 -79 -117 2 -13 22 -30 57 -47 66 -33 106 -70 132
-120 26 -50 25 -53 -20 -66 -53 -16 -57 -15 -35 11 l19 22 -22 -19 c-13 -10
-20 -23 -16 -29 4 -6 0 -8 -10 -4 -9 3 -19 2 -22 -3 -9 -14 -72 -12 -81 2 -4
6 -3 8 4 4 17 -10 113 96 99 110 -3 3 -12 -7 -20 -23 -20 -37 -57 -71 -57 -52
0 9 -7 6 -18 -9 -15 -20 -20 -21 -36 -9 -14 11 -29 12 -59 5 -45 -10 -43 -11
-65 33 -10 18 -23 35 -30 37 -7 2 0 -15 16 -38 l29 -43 -44 -40 c-28 -25 -49
-57 -61 -89 l-17 -50 -90 5 c-49 3 -101 8 -115 12 -23 6 -24 6 -5 -6 11 -8 62
-15 115 -17 l96 -4 -2 -26 c-1 -22 -8 -29 -40 -39 -21 -6 -31 -12 -22 -12 9
-1 28 3 41 8 22 9 26 7 31 -17 6 -29 7 -28 -79 -87 -27 -19 -60 -42 -71 -50
-16 -11 -33 -14 -63 -9 -45 7 -49 17 -26 60 19 36 19 55 0 80 -18 23 -19 109
-4 188 10 46 17 60 39 71 28 15 40 33 40 65 0 23 62 78 117 102 23 10 45 23
48 29 4 5 17 77 31 160 13 83 29 171 35 195 11 42 13 44 49 44 20 0 39 -2 42
-5z m-321 -311 c-46 -39 -85 -180 -61 -223 9 -18 14 -20 26 -10 8 6 13 23 13
38 -1 20 -2 22 -6 6 -3 -11 -10 -24 -15 -30 -22 -22 -1 119 26 173 14 28 28
52 30 52 2 0 6 -11 8 -25 3 -13 2 -22 -3 -20 -14 9 -38 -89 -36 -149 2 -49 -1
-61 -18 -70 -30 -17 -75 -63 -75 -77 0 -7 6 -5 15 7 14 18 14 17 5 -9 -14 -39
-13 -194 1 -203 10 -6 10 -16 -7 -111 -4 -19 -14 -35 -24 -38 -19 -6 -35 -34
-25 -43 3 -3 5 0 5 6 0 13 51 42 75 42 24 0 9 -17 -22 -25 -16 -3 -36 -14 -45
-22 -10 -9 -18 -13 -18 -8 0 4 -6 2 -14 -4 -12 -10 -13 -8 -9 9 3 11 9 23 14
26 5 3 9 16 9 29 0 12 7 26 16 29 12 5 15 15 11 39 -2 17 0 40 5 51 7 13 6 27
-3 45 -7 14 -11 32 -10 40 2 8 -7 22 -19 31 -19 14 -21 20 -11 38 15 28 14
104 -2 126 -17 24 -44 16 -98 -30 -23 -19 -44 -33 -46 -31 -7 8 73 183 101
220 32 42 98 93 170 131 57 30 78 25 37 -10z m889 -133 c0 -5 -11 -23 -26 -40
l-25 -30 52 6 52 6 -21 -21 c-22 -22 -38 -95 -30 -137 3 -14 3 -25 1 -25 -2 0
-56 -12 -121 -26 -187 -42 -233 -72 -267 -176 -10 -29 -34 -84 -54 -123 -34
-67 -36 -76 -41 -197 -6 -145 -15 -167 -90 -205 -45 -23 -104 -30 -114 -14 -8
12 -46 21 -46 10 0 -5 6 -9 13 -9 7 0 21 -6 31 -13 17 -12 15 -16 -30 -45 -32
-22 -60 -32 -84 -32 -23 0 -43 -7 -51 -17 -13 -15 -12 -15 9 -4 13 7 30 11 38
9 25 -5 -13 -47 -62 -68 -24 -11 -44 -23 -44 -28 0 -18 90 35 123 72 43 50 67
45 32 -6 -14 -20 -24 -47 -24 -60 1 -20 2 -21 6 -3 7 27 52 105 76 132 11 12
43 30 71 39 78 26 105 42 126 77 31 50 23 12 -14 -72 -19 -42 -39 -101 -45
-133 -14 -76 -34 -123 -77 -175 -20 -25 -47 -66 -60 -93 -19 -39 -30 -51 -61
-61 -21 -6 -54 -20 -73 -30 -28 -15 -31 -19 -13 -19 12 0 24 4 27 9 9 14 96
41 96 30 0 -6 -7 -24 -17 -42 -21 -41 -43 -140 -41 -192 0 -44 1 -43 19 65 14
84 28 123 29 77 0 -36 33 -137 38 -115 2 9 -4 33 -12 53 -9 21 -16 52 -16 70
0 61 40 168 84 225 57 72 70 101 89 188 9 40 31 105 49 145 31 68 33 80 38
222 l6 150 23 -49 c20 -42 22 -57 16 -120 -10 -112 -32 -184 -80 -265 -49 -83
-56 -125 -30 -188 8 -19 15 -50 15 -68 0 -18 7 -49 15 -69 11 -26 14 -52 9
-86 -4 -28 -3 -50 3 -50 16 0 14 108 -2 140 -8 16 -15 44 -15 62 0 29 1 31 16
17 8 -9 19 -41 23 -73 10 -72 20 -83 13 -14 -5 55 -17 84 -55 131 -35 45 -31
122 11 180 43 60 71 125 72 162 1 29 1 29 16 10 9 -11 27 -45 41 -75 19 -43
24 -65 20 -101 -3 -25 -1 -52 4 -60 6 -9 9 10 9 56 l1 70 19 -23 c22 -26 40
-83 40 -124 0 -15 4 -29 9 -32 13 -8 3 70 -16 122 -8 24 -26 50 -39 59 -13 8
-33 34 -44 57 -12 22 -27 52 -34 66 -10 18 -12 43 -7 90 l7 65 13 -42 c21 -66
49 -86 123 -89 98 -3 114 -13 134 -80 11 -40 15 -78 11 -123 -4 -58 -15 -86
-94 -241 -50 -96 -101 -210 -116 -252 -25 -75 -44 -103 -144 -217 -29 -33 -36
-36 -85 -35 -60 0 -175 36 -229 70 -20 12 -46 38 -58 57 -11 19 -63 71 -115
116 -75 65 -112 106 -175 201 -45 65 -103 147 -131 181 -64 80 -74 112 -67
218 6 90 27 158 62 198 61 69 97 103 111 103 9 0 27 9 41 20 30 23 39 25 40 8
6 -139 16 -215 33 -247 10 -20 19 -31 20 -25 0 7 -7 25 -15 40 -8 16 -15 49
-15 74 l1 45 24 -27 c14 -17 26 -46 30 -75 10 -75 13 -81 14 -31 1 56 -12 94
-45 129 -14 14 -27 42 -30 61 -9 50 38 101 112 125 l54 17 38 -37 c20 -19 50
-41 66 -47 28 -10 29 -12 22 -66 -5 -40 -2 -62 10 -85 8 -17 17 -29 20 -27 2
3 -3 19 -12 36 -13 27 -13 38 -4 68 7 19 15 33 18 31 4 -2 21 -9 39 -16 18 -7
34 -22 37 -35 3 -13 17 -31 32 -41 37 -24 41 -11 5 15 -17 12 -31 28 -31 36 0
25 43 15 79 -18 l35 -33 -23 30 c-28 37 -57 54 -95 55 -26 0 -28 2 -24 33 3
17 8 41 12 52 8 20 7 20 -8 1 -9 -11 -16 -35 -16 -53 l0 -34 -29 16 c-41 21
-42 35 -9 77 45 58 122 71 186 32 12 -8 22 -10 22 -5 0 5 -10 13 -22 17 -21 6
-21 7 5 22 15 9 29 23 32 31 4 9 -4 6 -18 -7 -19 -18 -38 -24 -80 -25 l-55 -2
2 43 c2 41 2 42 -10 20 -7 -12 -11 -30 -8 -39 3 -10 -8 -26 -30 -43 -19 -14
-38 -35 -41 -46 -10 -32 -56 -26 -93 13 l-32 33 20 19 c12 11 56 42 98 70 81
52 108 89 98 130 -6 25 -28 51 -47 57 -17 6 -2 44 33 84 45 51 60 56 105 38
60 -26 146 -14 317 44 123 41 155 56 185 86 34 35 61 46 61 27z m46 -133 c0
-36 -2 -46 -8 -32 -6 15 -7 12 -5 -12 2 -21 -1 -31 -11 -31 -11 0 -13 9 -8 38
6 36 23 89 28 89 2 0 3 -23 4 -52z m-536 -15 c13 -13 11 -14 -20 -8 -65 12
-74 16 -59 26 18 12 60 2 79 -18z m-570 -62 c0 -33 -4 -63 -10 -66 -17 -11
-11 -37 10 -42 22 -6 26 -33 8 -51 -9 -9 -7 -12 10 -12 30 0 32 -49 2 -57
l-21 -6 21 -14 c26 -18 26 -39 0 -53 -14 -7 -19 -17 -15 -29 3 -10 -1 -24 -10
-31 -8 -7 -15 -18 -15 -25 0 -7 -18 -25 -41 -41 -35 -24 -43 -26 -61 -15 -18
11 -19 10 -14 -7 5 -14 -3 -26 -29 -46 -19 -15 -35 -33 -35 -40 0 -7 -11 -22
-25 -34 -14 -12 -25 -31 -25 -41 0 -11 -7 -24 -14 -28 -8 -5 -22 -24 -30 -43
l-14 -35 -11 28 c-6 16 -14 54 -17 85 -3 31 -10 72 -16 91 -12 38 13 235 38
306 23 65 84 136 147 172 32 18 75 46 95 63 58 47 72 42 72 -29z m1140 -15 c0
-8 -17 -28 -37 -45 -44 -37 -37 -40 18 -8 34 19 41 20 49 7 22 -34 12 -47 -40
-54 l-50 -7 40 -50 c38 -48 53 -99 29 -99 -6 0 -32 23 -58 50 -26 28 -52 50
-58 50 -6 0 7 -17 28 -39 22 -21 39 -44 39 -50 0 -21 -30 -11 -42 14 -13 30
-52 43 -73 25 -11 -10 -15 -36 -15 -111 0 -55 -3 -99 -7 -99 -12 0 -51 62 -58
93 -8 29 -48 67 -71 67 -8 0 -22 -8 -32 -17 -19 -19 -65 -51 -97 -68 -11 -6
-30 -31 -42 -55 l-22 -45 -1 35 c-1 29 -3 32 -10 15 -5 -12 -9 -14 -9 -6 -1 8
12 41 28 75 15 34 34 79 41 101 30 95 83 128 264 166 77 16 116 29 135 45 30
27 51 31 51 10z m-768 -83 c23 -20 23 -61 1 -92 -16 -23 -17 -23 -24 -5 -10
24 -11 114 -2 114 3 0 15 -7 25 -17z m502 -215 c8 -13 17 -34 21 -47 4 -14 20
-42 36 -64 34 -47 39 -111 14 -195 -15 -49 -27 -63 -39 -43 -3 4 -23 11 -43
14 -54 9 -83 32 -83 68 0 20 -5 29 -16 29 -12 0 -15 6 -11 22 3 12 2 29 -3 38
-6 12 -5 23 5 36 19 25 19 34 0 34 -23 0 -18 21 6 27 21 6 21 6 -2 19 -21 11
-22 13 -6 19 9 4 24 4 33 1 14 -5 15 -4 5 8 -10 11 -8 19 6 35 23 28 59 27 77
-1z m-143 -60 c1 -7 0 -23 -1 -35 -1 -13 4 -23 10 -23 8 0 8 -6 0 -20 -14 -26
-2 -95 26 -147 l22 -43 -22 0 c-28 0 -50 23 -71 73 -19 46 -19 84 0 121 9 16
13 31 11 33 -3 3 -14 -12 -25 -34 -22 -41 -29 -22 -9 24 22 51 56 81 59 51z"/>
<path d="M1315 2044 c31 -24 96 -56 102 -50 3 3 -3 9 -13 13 -10 3 -36 17 -56
30 -42 26 -64 31 -33 7z"/>
<path d="M1280 2015 c13 -16 99 -57 110 -53 4 2 -21 17 -57 35 -35 17 -59 25
-53 18z"/>
<path d="M1240 1965 c0 -13 84 -45 141 -54 59 -10 99 -7 48 3 -112 21 -139 29
-155 41 -19 15 -34 19 -34 10z"/>
<path d="M1235 1830 c19 -8 113 -14 104 -6 -2 2 -31 6 -64 9 -36 3 -52 2 -40
-3z"/>
<path d="M1420 1779 c-13 -5 -58 -16 -100 -24 l-75 -13 92 3 c50 2 99 8 110
14 10 6 13 11 5 11 -7 0 -10 5 -7 10 7 12 7 12 -25 -1z"/>
<path d="M1285 1710 l-40 -7 40 -1 c22 0 49 3 60 8 20 9 20 9 0 8 -11 -1 -38
-4 -60 -8z"/>
<path d="M1065 1497 c-80 -64 -145 -141 -158 -183 -13 -46 -10 -173 4 -139 4
11 5 39 2 63 -6 51 16 118 51 151 l23 22 -1 -95 c-1 -94 6 -114 19 -55 l7 31
18 -27 c10 -15 21 -45 24 -67 4 -23 9 -38 12 -36 12 13 -11 92 -37 125 -49 61
-38 139 26 180 19 13 39 32 45 43 14 26 13 25 -35 -13z"/>
<path d="M1450 1473 c0 -5 12 -20 26 -34 14 -13 30 -35 35 -48 5 -13 12 -21
15 -18 3 3 -1 18 -9 34 -17 32 -67 82 -67 66z"/>
<path d="M1100 1371 c-5 -11 -10 -32 -9 -48 l1 -28 8 30 c4 17 11 38 15 48 10
23 -2 22 -15 -2z"/>
<path d="M1971 1097 c-1 -56 -9 -86 -42 -168 -23 -55 -40 -102 -37 -104 7 -8
78 172 88 223 5 26 5 63 0 82 -7 30 -8 25 -9 -33z"/>
<path d="M920 1125 c0 -27 97 -191 107 -181 3 2 -9 25 -27 51 -17 25 -40 66
-51 90 -18 40 -29 55 -29 40z"/>
<path d="M1099 851 c31 -57 146 -191 164 -191 6 0 -12 24 -40 53 -27 29 -67
76 -87 105 -38 52 -55 68 -37 33z"/>
</g>
</svg>
